<?xml version="1.0" encoding="UTF-8"?>
<!DOCTYPE svg PUBLIC "-//W3C//DTD SVG 1.1//EN" "http://www.w3.org/Graphics/SVG/1.1/DTD/svg11.dtd">
<!-- Creator: CorelDRAW 2021 (64 Bit) -->
<svg xmlns="http://www.w3.org/2000/svg" xml:space="preserve" width="51.1769mm" height="57.3745mm" version="1.1" style="shape-rendering:geometricPrecision; text-rendering:geometricPrecision; image-rendering:optimizeQuality; fill-rule:evenodd; clip-rule:evenodd"
viewBox="0 0 4540.95 5090.87"
 xmlns:xlink="http://www.w3.org/1999/xlink"
 xmlns:xodm="http://www.corel.com/coreldraw/odm/2003">
 <defs>
  <style type="text/css">
   <![CDATA[
    .str0 {stroke:#ED3237;stroke-width:221.83;stroke-miterlimit:22.9256}
    .fil0 {fill:none}
    .fil2 {fill:#84716B}
    .fil1 {fill:#ED3237}
   ]]>
  </style>
 </defs>
 <g id="Camada_x0020_1">
  <metadata id="CorelCorpID_0Corel-Layer"/>
  <rect class="fil0" x="-0" y="-0" width="4540.95" height="5090.87"/>
  <path class="fil1 str0" d="M1224.42 547.05l-57.2 40.45c-21.87,12.4 -38.87,20.5 -60.32,30.38 -108.55,50.07 -172.68,103.73 -249.05,202.07l-51.45 50.69c-58.08,73.28 -98.57,192.1 -131.06,284.59 -10.46,136.75 -46.03,225.93 -28.38,380.01 5.98,52.2 19.77,122.09 27.05,163.73 10.93,62.57 30.52,119.73 42.15,160.82l0.06 7.96c34.79,35.79 33.53,47.95 54.18,100.47 34.82,88.62 110.39,198.15 132.76,274.79 36.49,71.09 115.86,152.39 155.46,215.72l16.18 13.77c2.1,1.92 5.3,4.8 7.55,6.92 2.17,2.04 4.84,4.82 7.02,6.92l69.36 73.57c146.88,167.15 516.16,467.15 705.87,574.38 82.53,46.65 155.4,96.74 234.72,139.53 256.56,138.36 160.95,119.25 337.8,42.17l342.54 -197.45c19.13,-12.12 7.17,-4.38 19.48,-13.26 2.42,-2.84 5.23,-6.8 7.02,-8.73l45.56 -37.96c24.6,-16.01 35.19,-22.04 53.91,-35.71 22.57,-16.47 62.55,-41.87 99.02,-68.66 31.39,-23.05 2.86,0.03 28.28,-24.43l176.79 -128.69 1.92 6.23 365.62 -379.72c1.81,-2.03 4.16,-5.06 5.93,-7.14l52.24 -77.36c1.46,-2.39 3.4,-5.62 4.87,-7.99l126 -177.47 -8.76 -4.83 10.33 -37.37c19.78,-54.6 127.25,-244.98 156.56,-395.85 0.65,-3.31 1.36,-6.59 1.9,-9.97 10.75,-67.68 -0.13,-97.85 41.74,-152.2l3.05 -266.06c-20.03,-19.29 -5.22,17.83 -24.14,-31.2 -9.52,-24.67 -14.24,-274.82 -218.3,-481.82 -65.69,-66.63 -78.25,-86.28 -153.22,-131.31l-40.67 -24.21c-119.09,-65.41 -103.64,-54.67 -229.96,-82.65 -54.04,-11.98 -42.31,-9.5 -63.28,-30.62l-12.67 7.05 -221.54 -5.16c-29.61,21.25 -179.95,42.84 -294.31,84.55l-35.59 13.73c-147.19,57.81 -113.64,76.28 -213.03,105.3l-81.19 44.67 -28.5 31.9c-18.87,18.15 -8.91,9.42 -30.64,23.74 -32.79,9.24 -202.31,-114.32 -205.3,-125.13 -1.41,-5.11 -5.18,-5.63 -7.8,-8.44 -74.98,-19.3 -204.04,-120.44 -308.99,-127.2 -35.45,-1.15 -63.17,-2.91 -98.77,-9.34 -14.2,-2.56 -30.67,-5.07 -43.03,-10.8 -24.54,-11.39 -14.13,-9.89 -27.72,-22.53 -74.32,4.33 -150.96,-4.66 -226.13,2.13 -64.99,5.87 -121.6,28.48 -181.89,33.01z"/>
  <path class="fil2" d="M2826.33 3110.65c20.53,4.24 14.7,7.83 14.7,-14.09 -26.09,-4.05 -22.97,-10.32 -14.7,14.09l-27.22 -5.34c-12.31,8.87 -0.35,1.14 -19.48,13.26l-342.54 197.45c-176.85,77.08 -81.24,96.18 -337.8,-42.17 -79.32,-42.79 -152.19,-92.87 -234.72,-139.53 -189.71,-107.23 -558.99,-407.23 -705.87,-574.38l-69.36 -73.57c-2.17,-2.1 -4.85,-4.88 -7.02,-6.92 -2.25,-2.12 -5.45,-5 -7.55,-6.92l-16.18 -13.77 28.86 56.04c70.68,98.55 152.69,171.37 246.28,245.26 35.86,28.32 55.77,55.45 94.71,86.22 194.62,153.8 605.67,443.4 823.07,534.69l28 11.09c3.27,0.82 6.78,1.91 10.11,2.44 53.54,8.55 167.15,-64.73 203.03,-85.4l220.1 -129.28c31.91,-18.12 24.88,-13.77 57.15,-33.27l32.04 -19.52c2.82,-1.79 14.46,-5.44 16.11,-10.83 1.28,-4.14 5.47,-3.74 8.25,-5.55z"/>
  <path class="fil2" d="M3971.09 1291.38c29.66,-163.33 -119.79,-402.33 -230.8,-524.35l-106.02 -102.72c-2.1,-1.72 -5.24,-3.98 -7.38,-5.64l-127.62 -82.7c-75.19,-29.96 -189.63,-78.7 -257.76,-66.4 20.98,21.12 9.25,18.64 63.28,30.62 126.33,27.99 110.87,17.24 229.96,82.65l40.67 24.21c74.97,45.03 87.53,64.68 153.22,131.31 204.06,206.99 208.78,457.15 218.3,481.82 18.93,49.03 4.12,11.91 24.14,31.2z"/>
  <path class="fil2" d="M3211.61 2807.35c43.52,-9.62 18.28,18.53 28.84,-4.86 2.08,-4.6 8.82,0.45 12.7,-1.3l27.6 -48.59c40.53,-44.33 81.51,-49.6 236.59,-230.04l117.18 -142.6c1.65,-2.11 4,-5.13 5.67,-7.21l98.69 -148.45c1.46,-2.55 3.53,-5.48 4.93,-8.07l22.45 -58.56 -126 177.47c-1.47,2.37 -3.42,5.6 -4.87,7.99l-52.24 77.36c-1.77,2.09 -4.12,5.11 -5.93,7.14l-365.62 379.72z"/>
  <path class="fil2" d="M716.15 1859.82c-11.62,-41.09 -31.22,-98.25 -42.15,-160.82 -7.28,-41.64 -21.07,-111.53 -27.05,-163.73 -17.65,-154.09 17.92,-243.26 28.38,-380.01 -30.59,26.52 -3.26,-26.28 -31.46,37.08 -18.84,42.32 -21.32,372.92 2.95,476.36l7.68 31.5c7,33.73 14.81,104.76 35.55,135.45 16.02,23.73 3.81,7.2 26.1,24.19z"/>
  <path class="fil2" d="M3757.51 2152.84l44.94 -68.21c99.45,-194.82 88.5,-152.41 149.73,-393.09l15.86 -134.1c-41.87,54.35 -30.99,84.52 -41.74,152.2 -0.54,3.38 -1.25,6.66 -1.9,9.97 -29.32,150.87 -136.79,341.26 -156.56,395.85l-10.33 37.37z"/>
  <path class="fil2" d="M2815.31 537.29c49.64,-4.58 56.89,-2.32 100.52,-11.77 19.71,-4.26 56.64,-15.25 91.45,-14.05l221.54 5.16c-3.95,-2.68 -8.93,-5.25 -12.25,-7.4l-43.03 -32.48 -220.41 0c-18.91,41.09 -2.1,20.07 -63.12,30.84 -17.21,3.03 -29.67,4.56 -43.39,9.98 -24.48,9.67 -21.14,12.59 -31.32,19.72z"/>
  <path class="fil2" d="M2815.31 537.29c-109.78,33.47 -246.73,90.66 -335.85,161.97 -1.88,1.5 -6.22,10.11 -7.56,7.67 -1.38,-2.52 -4.99,5.46 -7.54,8.12 99.4,-29.01 65.84,-47.49 213.03,-105.3l35.59 -13.73c114.36,-41.71 264.7,-63.3 294.31,-84.55 -34.82,-1.2 -71.75,9.8 -91.45,14.05 -43.64,9.45 -50.89,7.19 -100.52,11.77z"/>
  <path class="fil2" d="M903.15 2243.04c-22.37,-76.64 -97.94,-186.17 -132.76,-274.79 -20.65,-52.52 -19.39,-64.68 -54.18,-100.47 15.73,102.17 170.2,382.16 178.31,367.34 1.32,-2.41 5.78,5.26 8.62,7.92z"/>
  <path class="fil2" d="M806.4 870.65l51.45 -50.69c76.37,-98.34 140.5,-152 249.05,-202.07 21.45,-9.88 38.45,-17.99 60.32,-30.38l57.2 -40.45 -148.72 63.72c-2.48,1.39 -5.9,3.03 -8.33,4.45 -2.36,1.39 -5.52,3.37 -7.83,4.82 -103.39,64.8 -126.36,86.25 -214.24,188.01l-38.9 62.6z"/>
  <path class="fil2" d="M2383.17 759.71l-84.99 31.59c-55.34,-39.72 -116.66,-85.84 -187.25,-109.52 2.62,2.8 6.39,3.33 7.8,8.44 2.98,10.81 172.51,134.36 205.3,125.13 21.73,-14.31 11.77,-5.58 30.64,-23.74l28.5 -31.9z"/>
  <path class="fil2" d="M2799.11 3105.31l27.22 5.34c-8.27,-24.41 -11.38,-18.14 14.7,-14.09l70.89 -53.97c3.07,-2.25 11.42,-8.98 14.48,-11.22l283.29 -230.25 -176.79 128.69c-25.42,24.45 3.11,1.38 -28.28,24.43 -36.48,26.79 -76.45,52.19 -99.02,68.66 -18.72,13.67 -29.31,19.71 -53.91,35.71l-45.56 37.96c-1.79,1.93 -4.6,5.89 -7.02,8.73z"/>
  <path class="fil2" d="M1801.95 554.58c-14.49,-12.5 1.91,-8.62 -37.11,-24.68 -0.21,-0.08 -39.07,-9.25 -39.77,-9.37 -34.13,-6.35 -58.62,-7.54 -92.63,-8.62 13.58,12.64 3.18,11.14 27.72,22.53 12.36,5.73 28.83,8.24 43.03,10.8 35.6,6.43 63.32,8.19 98.77,9.34z"/>
 </g>
</svg>
