<?xml version="1.0" standalone="no"?>
<!DOCTYPE svg PUBLIC "-//W3C//DTD SVG 20010904//EN"
 "http://www.w3.org/TR/2001/REC-SVG-20010904/DTD/svg10.dtd">
<svg version="1.0" xmlns="http://www.w3.org/2000/svg"
 width="225.000000pt" height="225.000000pt" viewBox="0 0 225.000000 225.000000"
 preserveAspectRatio="xMidYMid meet">

<g transform="translate(0.000000,225.000000) scale(0.100000,-0.100000)"
fill="#000000" stroke="none">
<path d="M1075 2054 c-88 -47 -436 -245 -550 -313 l-110 -66 -3 -142 -3 -142
33 -24 c18 -14 79 -50 135 -82 90 -50 105 -55 125 -44 13 6 91 50 173 97 83
46 173 97 201 113 l51 29 81 -51 82 -50 0 -70 c0 -38 -2 -69 -5 -69 -2 0 -26
13 -52 28 -101 59 -98 59 -204 1 -308 -169 -584 -334 -603 -361 -20 -29 -23
-270 -3 -306 7 -14 76 -61 167 -114 178 -104 496 -281 523 -291 20 -8 61 11
182 83 44 26 180 107 303 179 l222 132 0 458 c0 252 -3 499 -6 548 l-7 90
-116 69 c-118 69 -561 324 -564 324 -1 0 -25 -12 -52 -26z m240 -154 c83 -48
208 -121 280 -163 71 -41 131 -79 133 -85 2 -6 -37 -32 -86 -59 l-89 -47 -7
-165 c-3 -90 -6 -264 -6 -387 l0 -222 -47 -28 c-27 -15 -121 -72 -210 -127
l-163 -100 0 -118 c0 -65 -4 -120 -8 -123 -8 -5 -51 19 -449 244 l-183 103 0
128 0 127 143 83 c78 45 201 117 272 159 72 42 153 89 181 104 l51 28 91 -52
c50 -28 99 -50 109 -48 23 4 30 40 32 150 1 107 -9 121 -133 193 l-86 49 0
113 c0 65 -4 114 -10 118 -10 6 -126 -52 -342 -171 -121 -67 -118 -61 -118
-206 0 -49 -4 -78 -11 -78 -6 0 -49 21 -95 47 l-85 47 3 115 3 115 90 52 c427
247 549 312 570 302 11 -6 88 -50 170 -98z"/>
<path d="M1007 958 c-59 -34 -106 -67 -104 -73 5 -15 198 -115 222 -114 24 0
200 110 199 124 -1 9 -190 124 -204 125 -3 0 -53 -28 -113 -62z"/>
</g>
</svg>
