<?xml version="1.0" encoding="UTF-8"?>
<!DOCTYPE svg PUBLIC "-//W3C//DTD SVG 1.1//EN" "http://www.w3.org/Graphics/SVG/1.1/DTD/svg11.dtd">
<!-- Creator: CorelDRAW 2021 (64 Bit) -->
<svg xmlns="http://www.w3.org/2000/svg" xml:space="preserve" width="68.7176mm" height="12.0019mm" version="1.1" style="shape-rendering:geometricPrecision; text-rendering:geometricPrecision; image-rendering:optimizeQuality; fill-rule:evenodd; clip-rule:evenodd"
viewBox="0 0 102051.1 17823.78"
 xmlns:xlink="http://www.w3.org/1999/xlink"
 xmlns:xodm="http://www.corel.com/coreldraw/odm/2003">
 <defs>
  <style type="text/css">
   <![CDATA[
    .str0 {stroke:#FEFEFE;stroke-width:742.54;stroke-miterlimit:22.9256}
    .fil0 {fill:none;fill-rule:nonzero}
   ]]>
  </style>
 </defs>
 <g id="Camada_x0020_1">
  <metadata id="CorelCorpID_0Corel-Layer"/>
  <path class="fil0 str0" d="M17440.33 13699.56c0,382.26 -65.05,788.87 -199.3,1228.01 -130.09,434.98 -345.58,841.59 -642.45,1215.69 -296.72,374.09 -682.99,683.14 -1158.81,935.15 -479.83,248.01 -1061.24,374.09 -1752.39,374.09l-11758.86 0c-219.64,0 -426.96,-40.69 -618.09,-117.92 -191.13,-81.38 -353.75,-191.13 -496.02,-329.39 -138.26,-138.26 -248.01,-304.89 -325.23,-492.01 -81.38,-190.98 -117.92,-398.45 -117.92,-622.1l0 -13958.56c0,-215.49 36.53,-418.79 117.92,-609.77 77.22,-191.13 186.97,-357.9 325.23,-500.17 142.27,-142.27 304.89,-252.17 496.02,-333.4 191.13,-77.22 398.45,-117.92 618.09,-117.92l10364.22 0c382.11,0 792.88,65.05 1227.86,203.31 435.13,134.1 841.74,349.59 1219.84,646.46 378.1,300.88 691.16,687.15 943.32,1162.82 248.01,475.82 374.09,1061.24 374.09,1752.54l0 581.41c0,548.89 -89.55,1138.46 -272.51,1768.73 -182.96,634.28 -479.68,1227.86 -882.29,1793.09 349.74,215.49 674.97,471.66 980,776.55 308.9,300.88 577.25,650.61 805.06,1045.05 231.67,398.45 414.63,845.75 548.89,1345.78 134.1,500.17 203.31,1053.07 203.31,1658.98l0 593.59zm-3098.32 -593.59c0,-406.61 -65.05,-768.53 -191.13,-1089.75 -126.08,-321.22 -304.89,-597.6 -536.71,-829.42 -227.66,-231.82 -508.19,-406.61 -833.58,-528.54 -325.23,-126.08 -691.16,-187.12 -1093.76,-187.12l-6981.21 0 0 -3118.52 5586.57 0c406.61,0 768.53,-65.05 1093.76,-187.12 329.39,-121.93 605.91,-300.88 837.58,-528.54 227.81,-231.82 406.61,-508.34 528.69,-829.42 121.93,-321.22 182.96,-683.14 182.96,-1089.75l0 -581.41c0,-447.31 -211.48,-670.96 -642.45,-670.96l-8827.31 0 0 10888.75 10221.95 0c56.88,0 121.93,-4.01 203.31,-12.18 77.22,-8.17 150.44,-32.52 215.49,-69.06 61.04,-40.69 117.92,-109.9 166.63,-203.31 44.85,-93.56 69.2,-227.81 69.2,-394.44l0 -569.23zm22859.09 -6993.54c0,707.49 -89.4,1337.76 -264.34,1894.81 -174.79,552.9 -410.62,1044.9 -707.49,1471.86 -296.72,422.8 -642.45,784.72 -1032.72,1089.6 -386.27,300.88 -792.88,549.03 -1219.84,744.17 -422.8,195.14 -853.77,333.4 -1284.74,422.8 -435.13,85.39 -841.74,130.09 -1223.85,130.09l6469.01 5586.72 -4785.82 0 -6456.68 -5586.72 -2228.21 0 0 -3098.32 7001.7 0c390.28,-32.52 748.03,-113.76 1069.26,-243.85 321.22,-130.09 597.74,-309.05 833.58,-528.69 231.82,-223.5 414.78,-491.86 540.72,-805.06 126.08,-313.05 191.13,-670.81 191.13,-1077.43l0 -1955.7c0,-174.94 -20.35,-305.04 -65.05,-398.45 -44.7,-89.55 -101.58,-158.61 -166.63,-199.3 -69.2,-44.7 -138.26,-73.21 -215.63,-81.38 -77.22,-8.02 -146.28,-12.18 -207.32,-12.18l-10221.95 0 0 13987.07 -3098.17 0 0 -15519.97c0,-215.49 40.54,-418.79 121.93,-609.77 77.22,-191.13 186.97,-357.9 325.23,-500.17 138.26,-142.27 305.04,-252.17 496.02,-333.4 191.13,-77.22 398.6,-117.92 618.09,-117.92l11758.86 0c691.3,0 1272.71,126.08 1748.38,374.09 479.83,252.02 866.1,565.07 1162.82,943.32 296.87,373.94 512.35,780.56 642.45,1219.7 134.25,435.13 199.3,845.75 199.3,1228.01l0 1976.05zm19870.51 11340.07l-3098.32 0 0 -4192.08 -10888.75 0 0 4192.08 -3098.17 0 0 -8542.62c0,-1244.2 215.49,-2394.99 642.3,-3439.89 431.12,-1049.06 1024.7,-1951.69 1789.08,-2703.88 760.36,-756.2 1662.99,-1341.77 2703.88,-1764.57 1040.89,-418.79 2175.34,-630.27 3407.37,-630.27l6981.36 0c211.33,0 414.63,40.69 605.76,117.92 191.13,81.23 357.76,191.13 500.17,333.4 142.27,142.27 256.18,309.05 333.4,500.17 81.23,190.98 121.93,394.29 121.93,609.77l0 15519.97zm-13987.07 -7290.4l10888.75 0 0 -6696.67 -5444.3 0c-97.57,0 -296.87,16.34 -601.75,44.7 -305.04,28.51 -658.78,97.72 -1061.24,207.47 -398.45,109.75 -821.4,280.53 -1268.55,512.2 -443.3,231.82 -853.92,549.03 -1228.01,951.49 -369.93,406.61 -678.98,914.81 -922.98,1520.72 -239.84,605.76 -361.91,1341.77 -361.91,2207.87l0 1252.22zm34605.77 -2642.85c0,703.48 -89.4,1337.76 -264.2,1890.65 -174.94,557.05 -410.77,1049.06 -707.49,1472.01 -296.87,426.81 -642.45,788.73 -1028.71,1089.6 -390.28,305.04 -796.89,548.89 -1223.85,740.02 -422.95,191.13 -853.92,329.39 -1284.89,414.78 -430.97,89.4 -837.58,134.1 -1219.84,134.1l-7005.71 0 0 -3098.32 7005.71 0c394.44,-32.52 756.35,-113.76 1077.57,-243.85 321.22,-130.09 597.74,-309.05 829.42,-528.69 227.66,-223.5 406.61,-491.86 532.7,-805.06 130.09,-313.05 191.13,-670.81 191.13,-1065.25l0 -1406.82c-40.69,-390.28 -122.07,-748.18 -248.16,-1073.42 -130.09,-325.23 -300.88,-601.75 -520.37,-833.58 -215.49,-227.66 -479.83,-410.62 -792.88,-540.72 -309.05,-130.09 -666.8,-199.3 -1069.41,-199.3l-6981.21 0c-414.78,0 -727.84,109.75 -943.32,325.38 -211.48,211.33 -321.22,524.38 -321.22,926.99l0 12734.71 -3094.31 0 0 -12734.71c0,-792.88 142.42,-1467.85 435.13,-2024.91 288.7,-557.05 650.61,-1004.21 1081.58,-1345.78 434.98,-341.57 902.63,-589.58 1410.83,-744.17 508.34,-154.45 980,-231.67 1406.82,-231.67l7005.71 0c699.47,0 1325.58,89.4 1882.64,268.35 552.9,178.95 1044.9,414.63 1467.85,715.66 426.81,296.72 788.73,638.29 1085.59,1028.57 296.87,390.43 544.88,797.04 740.02,1219.84 195.14,426.96 333.4,853.92 422.8,1288.9 85.39,430.97 130.09,837.58 130.09,1219.84l0 1406.82zm17939.17 9933.25l-11173.29 0c-284.69,0 -593.73,-32.52 -922.98,-101.58 -329.39,-65.19 -654.62,-170.78 -975.85,-317.21 -321.22,-142.27 -630.27,-325.23 -922.98,-553.04 -296.87,-223.5 -553.04,-500.03 -780.71,-821.25 -227.66,-321.22 -406.61,-695.31 -540.72,-1118.12 -138.26,-426.96 -203.31,-906.79 -203.31,-1435.33l0 -8388.17c0,-284.69 32.52,-593.59 101.58,-922.98 65.05,-329.39 170.78,-654.62 313.05,-975.85 142.42,-321.22 329.39,-630.27 561.21,-922.98 231.67,-292.71 504.18,-553.04 829.42,-780.71 321.22,-227.66 691.16,-406.61 1114.11,-540.72 418.79,-138.26 894.46,-203.31 1427.16,-203.31l11173.29 0 0 3094.16 -11173.29 0c-406.61,0 -715.66,109.75 -927.14,325.38 -215.49,211.33 -325.23,528.54 -325.23,951.34l0 8363.82c0,394.44 109.75,703.33 329.39,922.98 219.49,215.49 524.53,325.23 922.98,325.23l11173.29 0 0 3098.32zm6050.36 0l-3098.32 0 0 -17081.24 3098.32 0 0 17081.24z"/>
 </g>
</svg>
