<?xml version="1.0" encoding="UTF-8"?>
<!DOCTYPE svg PUBLIC "-//W3C//DTD SVG 1.1//EN" "http://www.w3.org/Graphics/SVG/1.1/DTD/svg11.dtd">
<!-- Creator: CorelDRAW 2021 (64 Bit) -->
<svg xmlns="http://www.w3.org/2000/svg" xml:space="preserve" width="51.65mm" height="58.3846mm" version="1.1" style="shape-rendering:geometricPrecision; text-rendering:geometricPrecision; image-rendering:optimizeQuality; fill-rule:evenodd; clip-rule:evenodd"
viewBox="0 0 3806.53 4302.86"
 xmlns:xlink="http://www.w3.org/1999/xlink"
 xmlns:xodm="http://www.corel.com/coreldraw/odm/2003">
 <defs>
  <style type="text/css">
   <![CDATA[
    .str0 {stroke:#373435;stroke-width:73.7;stroke-miterlimit:22.9256}
    .str1 {stroke:#D2D3D5;stroke-width:184.25;stroke-miterlimit:22.9256}
    .str2 {stroke:#373435;stroke-width:5.62;stroke-miterlimit:22.9256}
    .fil0 {fill:none}
    .fil2 {fill:#ED3237}
    .fil3 {fill:#FEFEFE;fill-rule:nonzero}
    .fil1 {fill:#373435;fill-rule:nonzero}
   ]]>
  </style>
 </defs>
 <g id="Camada_x0020_1">
  <metadata id="CorelCorpID_0Corel-Layer"/>
  <path class="fil0 str0" d="M739 37.59l2300.68 0 730 758.2 0 3323.07c0,80.91 -66.23,147.15 -147.15,147.15l-2890.34 0c-80.94,0 -147.15,-66.21 -147.15,-147.15l0 -3930.86c0,-80.94 73.01,-150.41 153.95,-150.41z"/>
  <path class="fil1" d="M3076.38 677.96l0.04 3.95c0.64,27.83 8.31,47.88 20.15,60.45 10.44,11.07 25.12,16.61 41.39,16.61l0 0.15 2.26 -0.03 0.29 -0.15 542.67 0 -606.66 -630.09 0 549.11 -0.15 0zm-73.55 -677.96l51.66 0 746.71 775.55 0 57.09 -660.69 0 0 -0.15 -2.26 0.03 -0.29 0.15c-36.24,0 -69.84,-13.31 -94.94,-39.93 -23.68,-25.12 -38.9,-61.7 -40,-109.38l0 -0.43 -0.05 -4.67 -0.15 -0.29 0 -677.96z"/>
  <g id="_2672840690480">
   <polyline class="fil0 str1" points="2088.65,668.95 2088.65,3580.12 1478.14,2969.61 "/>
   <polyline class="fil0 str1" points="2088.65,668.95 2088.65,3580.12 2699.15,2969.61 "/>
  </g>
  <g id="_2672840693936">
   <rect class="fil2 str2" x="2.8" y="925.86" width="2854.66" height="996.01"/>
   <path class="fil3" d="M1125.56 1393.25c0,26.97 -3.43,51.3 -10.13,72.5 -6.71,21.37 -15.75,40.23 -27.13,56.45 -11.39,16.37 -24.64,30.25 -39.45,41.79 -14.98,11.7 -30.56,21.05 -46.94,28.38 -16.21,7.33 -32.74,12.63 -49.27,15.9 -16.53,3.43 -32.12,5.14 -46.78,5.14l-268.67 0 0 -118.82 268.67 0c15.12,-1.25 29,-4.37 41.32,-9.36 12.32,-4.99 22.92,-11.85 31.81,-20.27 8.73,-8.58 15.59,-18.87 20.43,-30.88 4.99,-12.01 7.33,-25.73 7.33,-40.85l0 -53.95c-1.56,-14.97 -4.68,-28.69 -9.51,-41.16 -4.99,-12.48 -11.53,-23.08 -19.96,-31.97 -8.26,-8.73 -18.4,-15.75 -30.41,-20.74 -11.85,-4.99 -25.57,-7.64 -41.01,-7.64l-267.74 0c-15.9,0 -27.91,4.22 -36.17,12.48 -8.11,8.11 -12.32,20.12 -12.32,35.55l0 488.38 -118.66 0 0 -488.38c0,-30.41 5.46,-56.29 16.69,-77.66 11.07,-21.36 24.95,-38.51 41.48,-51.61 16.69,-13.1 34.62,-22.61 54.11,-28.54 19.49,-5.93 37.58,-8.89 53.95,-8.89l268.67 0c26.82,0 50.83,3.43 72.2,10.3 21.2,6.86 40.08,15.9 56.29,27.44 16.38,11.39 30.25,24.48 41.63,39.45 11.39,14.98 20.89,30.56 28.38,46.78 7.48,16.37 12.79,32.74 16.21,49.43 3.28,16.53 4.99,32.12 4.99,46.78l0 53.95z"/>
   <path id="_1" class="fil3" d="M1880.74 1500.06c0,39.92 -7.02,76.57 -20.74,110.09 -13.88,33.53 -33.05,62.37 -57.38,86.54 -24.32,24.33 -53.33,43.19 -86.85,56.92 -33.53,13.72 -69.86,20.58 -109.15,20.58l-320.75 0c-8.42,0 -16.38,-1.56 -23.7,-4.53 -7.33,-3.12 -13.57,-7.33 -19.03,-12.62 -5.3,-5.31 -9.51,-11.7 -12.47,-18.87 -3.12,-7.33 -4.53,-15.29 -4.53,-23.86l0 -535.31c0,-8.26 1.4,-16.06 4.53,-23.39 2.96,-7.33 7.17,-13.72 12.47,-19.18 5.46,-5.46 11.7,-9.67 19.03,-12.79 7.33,-2.96 15.28,-4.53 23.7,-4.53l320.75 0c39.29,0 75.62,6.86 109.15,20.58 33.53,13.72 62.53,32.59 86.85,56.76 24.33,24.32 43.5,53.17 57.38,86.85 13.72,33.68 20.74,70.32 20.74,109.93l0 106.81zm-118.82 -106.81c0,-23.24 -3.74,-44.44 -11.22,-63.62 -7.49,-19.18 -17.94,-35.55 -31.66,-49.12 -13.72,-13.41 -30.09,-24.02 -49.11,-31.5 -19.03,-7.49 -40.23,-11.23 -63.31,-11.23l-261.81 0 0 417.59 261.81 0c23.08,0 44.28,-3.74 63.31,-11.08 19.02,-7.48 35.4,-18.09 49.11,-31.65 13.72,-13.56 24.17,-29.78 31.66,-48.8 7.48,-19.02 11.22,-40.23 11.22,-63.78l0 -106.81z"/>
   <path id="_2" class="fil3" d="M2538.92 1506.46l-375.49 0 0 -119.6 375.49 0 0 119.6zm53.02 -268.68l-476.06 0 0 536.41 -118.82 0 0 -595.19c0,-8.26 1.56,-16.06 4.68,-23.39 2.96,-7.33 7.17,-13.72 12.47,-19.18 5.31,-5.46 11.7,-9.67 19.02,-12.79 7.33,-2.96 15.29,-4.53 23.71,-4.53l535 0 0 118.66z"/>
  </g>
 </g>
</svg>
